<svg width="24" height="24" xmlns="http://www.w3.org/2000/svg">

 <g>
  <title>background</title>
  <rect fill="none" id="canvas_background" height="402" width="582" y="-1" x="-1"/>
 </g>
 <g>
  <title>Layer 1</title>
  <path id="svg_2" fill="#95a5a6" d="m4,5.999976c-1.1046,0 -2,0.9 -2,2l0,10c0,1.1 0.8954,2 2,2l16,0c1.105,0 2,-0.9 2,-2l0,-10c0,-1.1 -0.895,-2 -2,-2l-16,0z"/>
  <path id="svg_3" fill="#bdc3c7" d="m4,5c-1.1046,0 -2,0.8954 -2,2l0,10c0,1.105 0.8954,2 2,2l16,0c1.105,0 2,-0.895 2,-2l0,-10c0,-1.1046 -0.895,-2 -2,-2l-16,0z"/>
  <rect id="svg_4" y="6.999976" x="4" width="7" height="10" fill="#ecf0f1"/>
  <path id="svg_5" fill="#7e8b8c" d="m7.3125,8a2.5,2.5 0 0 0 -2.3125,2.5a2.5,2.5 0 0 0 0.8125,1.844c-0.7184,0.297 -1.3395,0.769 -1.8125,1.375l0,2.281l0,1l7,0l0,-1l0,-2.312c-0.474,-0.592 -1.1053,-1.052 -1.8125,-1.344a2.5,2.5 0 0 0 0.8125,-1.844a2.5,2.5 0 0 0 -2.6875,-2.5z"/>
  <path id="svg_6" fill="#7f8c8d" d="m13,8l0,1l4,0l0,-1l-4,0zm0,2l0,1l7,0l0,-1l-7,0zm0,2l0,1l7,0l0,-1l-7,0z"/>
 </g>
</svg>